<svg width="354" height="98" viewBox="0 0 354 98" fill="none" xmlns="http://www.w3.org/2000/svg">
<path d="M321.352 97.152C307.443 97.152 296.435 91.648 288.328 80.64L296.392 74.24C299.72 78.6773 303.432 82.048 307.528 84.352C311.709 86.5707 316.488 87.68 321.864 87.68C328.605 87.68 333.768 86.0587 337.352 82.816C341.021 79.5733 342.856 75.136 342.856 69.504C342.856 64.9813 341.491 61.4827 338.76 59.008C336.029 56.448 331.507 54.4853 325.192 53.12L317.512 51.328C308.723 49.3653 302.109 46.336 297.672 42.24C293.32 38.0587 291.144 32.512 291.144 25.6C291.144 17.408 293.96 11.0933 299.592 6.65601C305.224 2.21867 312.733 0 322.12 0C335.603 0 345.843 5.07733 352.84 15.232L344.776 20.992C339.229 13.312 331.507 9.472 321.608 9.472C315.293 9.472 310.387 10.8373 306.888 13.568C303.475 16.2133 301.768 20.096 301.768 25.216C301.768 29.7387 303.176 33.2373 305.992 35.712C308.893 38.1013 313.459 39.9787 319.688 41.344L327.496 43.008C336.541 45.056 343.112 48.1707 347.208 52.352C351.389 56.5333 353.48 62.08 353.48 68.992C353.48 77.6107 350.621 84.48 344.904 89.6C339.187 94.6347 331.336 97.152 321.352 97.152Z" fill="black"/>
<path d="M191.208 93.824H180.328L213.096 0H227.048L259.816 93.824H248.552L238.824 65.792H200.936L191.208 93.824ZM219.624 9.856L203.368 56.32H236.264L220.264 9.856H219.624Z" fill="black"/>
<path d="M113.088 53.888L87.616 93.824H75.328L106.816 45.952L76.608 0H89.536L113.728 37.632H114.112L138.304 0H150.592L120.512 45.568L152 93.824H139.072L113.6 53.888H113.088Z" fill="black"/>
<path d="M56.832 84.528V94H0V0.176025H56.832V9.64803H10.752V41.648H54.272V51.12H10.752V84.528H56.832Z" fill="black"/>
</svg>
